<svg xmlns="http://www.w3.org/2000/svg" data-name="Layer 1" viewBox="0 0 976.5 144.2">
  <defs>
    <filter id="a" color-interpolation-filters="sRGB">
      <feColorMatrix type="saturate" values="1"/>
    </filter>
    <filter id="b" color-interpolation-filters="sRGB">
      <feColorMatrix type="saturate" values="1"/>
    </filter>
    <filter id="c" color-interpolation-filters="sRGB">
      <feColorMatrix type="saturate" values="1"/>
    </filter>
  </defs>
  <g fill="#166db7" filter="url(#a)" transform="translate(7.8 -1.8)">
    <path d="m182.1 90.5 2.7 3.8A18.3 18.3 0 0 0 187 97a7.8 7.8 0 0 0 2.3 1.5 8 8 0 0 0 2.8.6v6h-14.9a15.4 15.4 0 0 1-3.2-3.4l-3.4-5.2-6.7-10.8q-1.1-1.9-2-3.1a70 70 0 0 0-1.8-2.2h-4.7V90l-.1 4.8a32.6 32.6 0 0 1-.3 3.4l7.7-.2v7H136v-6a27 27 0 0 0 2.7-.3 3.8 3.8 0 0 0 2-1 5 5 0 0 0 1.3-2.3 16.3 16.3 0 0 0 .4-4.3V51.7a46.2 46.2 0 0 1 .3-3.4l-6.8.3v-7l25.8-.2a52.8 52.8 0 0 1 10.6 1 23.2 23.2 0 0 1 8.2 3.2 14.9 14.9 0 0 1 5.2 5.8 19.3 19.3 0 0 1 1.8 8.8 17 17 0 0 1-1 5.8 16.3 16.3 0 0 1-2.9 5.2 20.7 20.7 0 0 1-5 4.2 27.4 27.4 0 0 1-7 3 10.7 10.7 0 0 1 3.4 2.3 19.4 19.4 0 0 1 2.9 3.4zm-22.2-16.7a21.8 21.8 0 0 0 6.4-.8 10.2 10.2 0 0 0 4.3-2.6 10.3 10.3 0 0 0 2.5-4.2 20.4 20.4 0 0 0 .8-6 16.2 16.2 0 0 0-.7-5 11 11 0 0 0-1.7-3.4 8.5 8.5 0 0 0-2.4-2.2 12.8 12.8 0 0 0-2.7-1.2 13 13 0 0 0-2.6-.5l-2.2-.1a13.8 13.8 0 0 0-2.6.2 3.7 3.7 0 0 0-2 1 5 5 0 0 0-1 2 13.8 13.8 0 0 0-.5 3.8v18.6a45 45 0 0 0 4.5.3zm78.1 6.8-29.7.5a32.4 32.4 0 0 0 .6 6.9 15.8 15.8 0 0 0 2.2 5.4 10.6 10.6 0 0 0 4 3.6 12.5 12.5 0 0 0 6 1.3 15 15 0 0 0 3-.4 16.4 16.4 0 0 0 3.4-1.1 20 20 0 0 0 3.5-2.1 18.2 18.2 0 0 0 3.3-3.2l4 3.8a26.2 26.2 0 0 1-5.1 5.7 24.7 24.7 0 0 1-5.5 3.3 22.5 22.5 0 0 1-5.4 1.7 32.2 32.2 0 0 1-5 .4 24 24 0 0 1-9.1-1.7 20 20 0 0 1-7.1-4.8 21.8 21.8 0 0 1-4.6-7.6 28.8 28.8 0 0 1-1.6-10 26 26 0 0 1 1.6-9 24.5 24.5 0 0 1 4.6-7.7 22 22 0 0 1 7.2-5.4 21.4 21.4 0 0 1 9.3-2 28.8 28.8 0 0 1 5 .5 19.8 19.8 0 0 1 4.7 1.5 17.9 17.9 0 0 1 4.3 2.7 15.5 15.5 0 0 1 3.4 4.2 22.6 22.6 0 0 1 2.2 5.8 31.9 31.9 0 0 1 .8 7.7zm-20-16a8 8 0 0 0-6.2 2.8 10.6 10.6 0 0 0-1.9 3.2 18.2 18.2 0 0 0-1 4.1h16.6a19 19 0 0 0-.6-4.7 9 9 0 0 0-1.6-3.2 5.8 5.8 0 0 0-2.3-1.7 7.8 7.8 0 0 0-3-.5zM250.8 90a8.4 8.4 0 0 0 1.3 4 11.2 11.2 0 0 0 3 3 14.8 14.8 0 0 0 4.4 2.1 18.5 18.5 0 0 0 5.4.8 9.7 9.7 0 0 0 2.2-.3 6.7 6.7 0 0 0 2-.8 4.6 4.6 0 0 0 1.5-1.4 3.7 3.7 0 0 0 .5-2 3.5 3.5 0 0 0-.7-2.2 6.7 6.7 0 0 0-2-1.7 22.9 22.9 0 0 0-3.2-1.5l-4.6-1.8q-2.8-1-5.7-2.3a25 25 0 0 1-5.2-2.8 13.8 13.8 0 0 1-3.8-4.1 11.7 11.7 0 0 1-1.5-6.2 14.5 14.5 0 0 1 1-5.2 13 13 0 0 1 3-4.7 15.6 15.6 0 0 1 5.3-3.3 20.5 20.5 0 0 1 7.7-1.3 22.1 22.1 0 0 1 2.7.1 24.8 24.8 0 0 1 2.9.6 20 20 0 0 1 2.8 1 12.4 12.4 0 0 1 2.5 1.3v-2.6h6.9v16h-5.9a12.4 12.4 0 0 0-1.4-4.2 11 11 0 0 0-2.7-3.2 12.3 12.3 0 0 0-3.8-2 14.1 14.1 0 0 0-4.5-.7 9.4 9.4 0 0 0-2.2.2 5.9 5.9 0 0 0-2 .9 4.2 4.2 0 0 0-1.3 1.5 4.7 4.7 0 0 0-.4 2.2 4 4 0 0 0 .8 2.6 6.9 6.9 0 0 0 2.3 1.8 24.7 24.7 0 0 0 3.5 1.4l4.4 1.4a58.4 58.4 0 0 1 6.4 2.6 22 22 0 0 1 5 3.3 14.5 14.5 0 0 1 3.3 4.3 12.3 12.3 0 0 1 1.2 5.6 12.6 12.6 0 0 1-5 10.5 16.1 16.1 0 0 1-5.3 2.6 21.8 21.8 0 0 1-6.1.8 29 29 0 0 1-4-.2 31.7 31.7 0 0 1-3.6-.8 21 21 0 0 1-3.3-1 13.7 13.7 0 0 1-2.6-1.5l.3 2.7h-7L245 90zm59.5-31.8a25.2 25.2 0 0 1 9 1.6 20.6 20.6 0 0 1 7.3 4.6 21.3 21.3 0 0 1 4.8 7.3 25.7 25.7 0 0 1 1.7 9.8 30.5 30.5 0 0 1-1.6 10.3 22.9 22.9 0 0 1-4.7 7.9 20 20 0 0 1-7.1 5 23.2 23.2 0 0 1-9.1 1.7 25.3 25.3 0 0 1-9.2-1.6 21.4 21.4 0 0 1-7.3-4.6 21.1 21.1 0 0 1-4.8-7.2 25 25 0 0 1-1.8-9.6 28 28 0 0 1 1.9-10.4 24 24 0 0 1 4.9-7.9 22 22 0 0 1 16-6.9zm-.1 6.4a7.2 7.2 0 0 0-4.5 1.5A10.6 10.6 0 0 0 303 70a18.8 18.8 0 0 0-1.6 5.2 37.3 37.3 0 0 0-.5 5.8 43 43 0 0 0 .6 7 24 24 0 0 0 1.8 6 12.4 12.4 0 0 0 3.1 4.5 6.8 6.8 0 0 0 4.7 1.6 6.7 6.7 0 0 0 4.4-1.5 10.2 10.2 0 0 0 2.6-3.7 19.5 19.5 0 0 0 1.4-5.3 45.1 45.1 0 0 0 .4-5.7 51.1 51.1 0 0 0-.5-6.8 25.2 25.2 0 0 0-1.6-6.2 12.6 12.6 0 0 0-3-4.5 6.5 6.5 0 0 0-4.5-1.7zm76.1 25.8V92l-.1 2a98.3 98.3 0 0 1-.3 4.3l5.9-.3v7h-23.7v-6a6.4 6.4 0 0 0 3-.5 3.6 3.6 0 0 0 1.6-1.7 6.9 6.9 0 0 0 .6-2.5l.1-3.2V78q0-5.9-1.8-8.7-1.8-2.7-5.5-2.7a11 11 0 0 0-4.6 1 14.3 14.3 0 0 0-3.7 2.3v24c-.2.6-.2 1.4-.2 2.2l-.1 2.1 5.8-.3v7h-23.7v-6a6.4 6.4 0 0 0 3-.5 3.7 3.7 0 0 0 1.6-1.7 7 7 0 0 0 .7-2.5l.1-3.3V72.1l.4-4-6.4.2v-6.8a49.9 49.9 0 0 0 5.5-.2 34.5 34.5 0 0 0 4.2-.7 15.3 15.3 0 0 0 2.7-.9 6 6 0 0 0 1.5-.9h4.5l.4 4.5h.1a23.3 23.3 0 0 1 3-2 28.7 28.7 0 0 1 3.5-1.6 27.3 27.3 0 0 1 3.5-1 13.9 13.9 0 0 1 3-.5 18.8 18.8 0 0 1 7.1 1.2 11 11 0 0 1 4.8 3.6 16 16 0 0 1 2.6 6.2 42.7 42.7 0 0 1 .9 9zm11.9-20.2a8.5 8.5 0 0 1 1.5-5 12.8 12.8 0 0 1 4-3.7 21.8 21.8 0 0 1 6.1-2.4 31.1 31.1 0 0 1 7.5-.9 22.8 22.8 0 0 1 7 1 13.1 13.1 0 0 1 5.3 3.2 13.7 13.7 0 0 1 3.3 5.4 23.8 23.8 0 0 1 1.1 7.7V94l-.1 2.2-.2 2.1 5.9-.3v7h-17.2a37.7 37.7 0 0 1-.4-4.2 18.3 18.3 0 0 1-6.5 4.3 19.6 19.6 0 0 1-7 1.3 14 14 0 0 1-5.2-1 10.6 10.6 0 0 1-3.8-2.5 11.3 11.3 0 0 1-2.4-3.8 13.2 13.2 0 0 1-.9-4.8 12.7 12.7 0 0 1 1-5.2 13.8 13.8 0 0 1 2.8-4 18.2 18.2 0 0 1 4.3-3.2 29.9 29.9 0 0 1 5.2-2.2 41.5 41.5 0 0 1 5.8-1.4 55.2 55.2 0 0 1 6.1-.6V73a17 17 0 0 0-.3-3.4 7.2 7.2 0 0 0-1-2.6 5.2 5.2 0 0 0-2-1.7 6.6 6.6 0 0 0-3-.6 10.1 10.1 0 0 0-3.5.8 8 8 0 0 0-2.8 1.8 3.5 3.5 0 0 1 1 1.8 8.7 8.7 0 0 1 .1 1.6 5.9 5.9 0 0 1-.3 2 5.3 5.3 0 0 1-1.1 1.8 6 6 0 0 1-2 1.3 6.5 6.5 0 0 1-2.7.5 5.8 5.8 0 0 1-2.3-.5 5.4 5.4 0 0 1-1.8-1.3 5.6 5.6 0 0 1-1-2 7.3 7.3 0 0 1-.5-2.3zM421.4 84a26.5 26.5 0 0 0-4.8.9 14.5 14.5 0 0 0-4 1.8 8.5 8.5 0 0 0-2.5 2.6 6.3 6.3 0 0 0-1 3.4 5.2 5.2 0 0 0 .5 2.2 4.5 4.5 0 0 0 1.1 1.5 4.3 4.3 0 0 0 1.6.8 6.6 6.6 0 0 0 1.9.3 8.8 8.8 0 0 0 3.9-1 10.8 10.8 0 0 0 3.2-2.4zm69.9 6.4V94c-.2.7-.2 1.4-.2 2.2l-.1 2.1 5.8-.3v7h-23.7v-6a6.4 6.4 0 0 0 3-.5 3.7 3.7 0 0 0 1.6-1.7 7 7 0 0 0 .6-2.5q.2-1.5.2-3.2V78q-.1-5.9-1.9-8.7-1.7-2.7-5.5-2.7a11 11 0 0 0-4.5 1 14.3 14.3 0 0 0-3.8 2.3v24l-.1 2.2-.2 2.1 5.9-.3v7h-23.8v-6a6.4 6.4 0 0 0 3-.5 3.7 3.7 0 0 0 1.6-1.7 7.1 7.1 0 0 0 .7-2.5l.1-3.3V72.1l.4-4-6.4.2v-6.8a49.7 49.7 0 0 0 5.5-.2 34.5 34.5 0 0 0 4.1-.7 15.3 15.3 0 0 0 2.8-.9 6 6 0 0 0 1.5-.9h4.5l.4 4.5h.1a22.4 22.4 0 0 1 3-2 28.6 28.6 0 0 1 3.5-1.6 27.3 27.3 0 0 1 3.5-1 13.9 13.9 0 0 1 3-.5 18.8 18.8 0 0 1 7.1 1.2 11 11 0 0 1 4.7 3.6 16 16 0 0 1 2.7 6.2 42.2 42.2 0 0 1 .9 9zm8.1-30.7a9.2 9.2 0 0 0 4.4-1.2 15.2 15.2 0 0 0 3.7-2.8 18.1 18.1 0 0 0 2.7-3.7 18.5 18.5 0 0 0 1.7-3.7h6.6v11.4H530v7l-11.5.2v10.6l-.1 6.8v4.9a24.3 24.3 0 0 0 .2 3.1 9.3 9.3 0 0 0 .8 3 5.1 5.1 0 0 0 1.7 2 4.7 4.7 0 0 0 2.8.7 7.5 7.5 0 0 0 1.4-.2 7.7 7.7 0 0 0 2-.7 11.9 11.9 0 0 0 2.3-1.6 16.8 16.8 0 0 0 2.5-3l4.4 4.1a25.8 25.8 0 0 1-5 5.6 19.3 19.3 0 0 1-4.7 3 14.6 14.6 0 0 1-4.1 1c-1.3.2-2.3.2-3.1.2a21.6 21.6 0 0 1-3.1-.2 13.1 13.1 0 0 1-3.2-1 11 11 0 0 1-3-1.8 11.7 11.7 0 0 1-2.4-3.2 17.6 17.6 0 0 1-1.7-4.7 30.3 30.3 0 0 1-.7-6.5l.2-21.8h-6.2z"/>
  </g>
  <g fill="#8ec13f" filter="url(#b)" transform="translate(7.8 -3.2)">
    <path d="M611.5 105.3h-2.3a20.6 20.6 0 0 0-5.4.8l-5.8 1.6q-3 .9-6.5 1.6a38.5 38.5 0 0 1-8 .7q-7.7 0-13.7-2.6a29.1 29.1 0 0 1-10.2-7.2 31.2 31.2 0 0 1-6.3-10.7 40 40 0 0 1-2.1-13.3 42.3 42.3 0 0 1 .9-8.7 38.6 38.6 0 0 1 2.7-8.3 36.2 36.2 0 0 1 4.6-7.4 30 30 0 0 1 6.4-6 30.6 30.6 0 0 1 8.3-4 33.9 33.9 0 0 1 10.1-1.4 33.3 33.3 0 0 1 4.2.3 42.5 42.5 0 0 1 4.8 1A46 46 0 0 1 598 43a24.1 24.1 0 0 1 4.2 2h.1l-.3-4h7.3v22.2h-6.2a22.8 22.8 0 0 0-2.2-7 16.8 16.8 0 0 0-4-5 16 16 0 0 0-5.1-3 19.4 19.4 0 0 0-6.3-1q-5 0-8.7 2.3a19 19 0 0 0-6 6 28 28 0 0 0-3.6 8.7 43 43 0 0 0-1.1 10 47.4 47.4 0 0 0 1.2 11.3 28 28 0 0 0 3.8 9 18.1 18.1 0 0 0 6.2 5.8 17 17 0 0 0 8.6 2.1 34.4 34.4 0 0 0 6.7-.6 32.4 32.4 0 0 0 3.6-.8 18.2 18.2 0 0 0 3.1-1.1V88.6l.1-2.4a56.7 56.7 0 0 1 .3-3.6l-7.2.3v-7.3h25.3v6.2a16.7 16.7 0 0 0-2.8.4 3.7 3.7 0 0 0-2 1.1 5.7 5.7 0 0 0-1.1 2.5 18.6 18.6 0 0 0-.4 4.3zM667.7 83l-31.3.5a34.2 34.2 0 0 0 .7 7.2 16.7 16.7 0 0 0 2.3 5.7 11.2 11.2 0 0 0 4.2 3.8q2.5 1.4 6.2 1.4a15.7 15.7 0 0 0 3.2-.4 17.3 17.3 0 0 0 3.6-1.2 20.8 20.8 0 0 0 3.7-2.2 19.2 19.2 0 0 0 3.5-3.4l4.3 4a27.7 27.7 0 0 1-5.5 6 25.8 25.8 0 0 1-5.7 3.5 23.5 23.5 0 0 1-5.8 1.7 33.4 33.4 0 0 1-5.2.4 25.1 25.1 0 0 1-9.5-1.7 21 21 0 0 1-7.5-5 22.8 22.8 0 0 1-4.8-8 30.2 30.2 0 0 1-1.6-10.5 27.3 27.3 0 0 1 1.6-9.6 25.6 25.6 0 0 1 4.8-8 23.1 23.1 0 0 1 7.5-5.7 22.5 22.5 0 0 1 9.8-2 30.2 30.2 0 0 1 5.3.4 20.8 20.8 0 0 1 5 1.5 19 19 0 0 1 4.4 3 16.3 16.3 0 0 1 3.6 4.3 23.6 23.6 0 0 1 2.3 6.1 33.1 33.1 0 0 1 .9 8.1zm-21-16.9a8.5 8.5 0 0 0-3.8.8 8.7 8.7 0 0 0-2.8 2.2 11.4 11.4 0 0 0-2 3.4 19.2 19.2 0 0 0-1 4.3h17.4a20 20 0 0 0-.7-5 9.4 9.4 0 0 0-1.6-3.3 6 6 0 0 0-2.5-1.8 8.2 8.2 0 0 0-3-.6zm50.8-6.7a26.4 26.4 0 0 1 9.5 1.7 21.6 21.6 0 0 1 7.6 4.9 22.5 22.5 0 0 1 5 7.6 27 27 0 0 1 1.9 10.3 31.9 31.9 0 0 1-1.8 10.8 24 24 0 0 1-4.8 8.3 21.2 21.2 0 0 1-7.5 5.2 24.4 24.4 0 0 1-9.6 1.8 26.7 26.7 0 0 1-9.6-1.6 22.6 22.6 0 0 1-7.6-4.9 22.2 22.2 0 0 1-5.1-7.6 26.1 26.1 0 0 1-1.9-10 29.3 29.3 0 0 1 1.9-10.8 25.4 25.4 0 0 1 5.2-8.4 23 23 0 0 1 7.6-5.3 22.8 22.8 0 0 1 9.2-2zm-.1 6.7a7.5 7.5 0 0 0-4.7 1.6 11.3 11.3 0 0 0-3 4 20 20 0 0 0-1.6 5.4 38.7 38.7 0 0 0-.5 6.2 45.8 45.8 0 0 0 .5 7.2A25.5 25.5 0 0 0 690 97a13.1 13.1 0 0 0 3.3 4.6 7.2 7.2 0 0 0 4.9 1.8 7 7 0 0 0 4.6-1.6 10.6 10.6 0 0 0 2.8-4 20.6 20.6 0 0 0 1.5-5.4 46.8 46.8 0 0 0 .4-6.1 52.9 52.9 0 0 0-.5-7.1 26.1 26.1 0 0 0-1.7-6.5 13.2 13.2 0 0 0-3.1-4.7 6.8 6.8 0 0 0-4.8-1.9zM726.8 42l27.7-.1a46.3 46.3 0 0 1 11.4 1.3 36.2 36.2 0 0 1 9.2 3.6 30.2 30.2 0 0 1 7 5.5 31.5 31.5 0 0 1 7.8 14.4 34 34 0 0 1 1 7.9 36.5 36.5 0 0 1-1 7.9 33.5 33.5 0 0 1-2.7 7.8 32.5 32.5 0 0 1-4.8 7 30 30 0 0 1-7 5.9 36.2 36.2 0 0 1-9.4 3.9 45.7 45.7 0 0 1-12 1.4h-27.2v-6.2a24.2 24.2 0 0 0 2.8-.4 4.2 4.2 0 0 0 2.2-1 5.1 5.1 0 0 0 1.3-2.4 17.3 17.3 0 0 0 .5-4.5V52.6a71.3 71.3 0 0 1 .3-3.6l-7.1.3zm27.5 6.2a16.1 16.1 0 0 0-3 .2 4 4 0 0 0-2.3 1 5.3 5.3 0 0 0-1.3 2.5 17.3 17.3 0 0 0-.4 4.4v41.6a56.2 56.2 0 0 1-.3 3.6 27.9 27.9 0 0 1 4.4 0h4.6q5.2 0 9-2a18.3 18.3 0 0 0 6.1-5.7 24.9 24.9 0 0 0 3.6-8 36.8 36.8 0 0 0 1.2-9.2q0-7.3-1.5-12.6-1.5-5.2-4.4-8.7a17.6 17.6 0 0 0-6.8-5.2 24 24 0 0 0-8.9-1.9zM798.6 72a9 9 0 0 1 1.5-5.1 13.4 13.4 0 0 1 4.3-4 22.7 22.7 0 0 1 6.4-2.5 32.4 32.4 0 0 1 7.8-1 24.1 24.1 0 0 1 7.5 1.1 13.8 13.8 0 0 1 5.5 3.3 14.4 14.4 0 0 1 3.4 5.7 25 25 0 0 1 1.2 8.1V95l-.2 2a64.1 64.1 0 0 1-.3 4.6l6.2-.3v7.2h-18a45 45 0 0 1-.4-4.3 19.2 19.2 0 0 1-6.8 4.6 20.7 20.7 0 0 1-7.3 1.3 14.8 14.8 0 0 1-5.5-1 11.2 11.2 0 0 1-4-2.6 11.9 11.9 0 0 1-2.6-4 13.9 13.9 0 0 1-.9-5 13.3 13.3 0 0 1 1-5.5 14.4 14.4 0 0 1 3-4.4 19 19 0 0 1 4.5-3.2 30.7 30.7 0 0 1 5.5-2.4 43.3 43.3 0 0 1 6.1-1.4 56.3 56.3 0 0 1 6.4-.7v-5a17.5 17.5 0 0 0-.3-3.4 7.5 7.5 0 0 0-1.1-2.8 5.3 5.3 0 0 0-2.1-1.8 6.8 6.8 0 0 0-3.3-.6 10.7 10.7 0 0 0-3.6.8 8.5 8.5 0 0 0-2.9 2 3.7 3.7 0 0 1 1 1.7 9 9 0 0 1 .2 1.7 6.1 6.1 0 0 1-.4 2.1 5.5 5.5 0 0 1-1.1 2 6.2 6.2 0 0 1-2 1.3 6.9 6.9 0 0 1-3 .6 6.2 6.2 0 0 1-2.4-.6 5.6 5.6 0 0 1-1.9-1.4 6 6 0 0 1-1.1-2 7.7 7.7 0 0 1-.4-2.5zm24.3 14.6a28.4 28.4 0 0 0-5 1 15.4 15.4 0 0 0-4.1 1.8 9 9 0 0 0-2.8 2.8 6.7 6.7 0 0 0-1 3.6 5.5 5.5 0 0 0 .5 2.3 4.8 4.8 0 0 0 1.2 1.5 4.6 4.6 0 0 0 1.7.9 7 7 0 0 0 2 .3 9.3 9.3 0 0 0 4.1-1 11.3 11.3 0 0 0 3.4-2.5zM844.7 61a9.7 9.7 0 0 0 4.6-1.3 16 16 0 0 0 3.8-2.9 19 19 0 0 0 3-3.8 19.9 19.9 0 0 0 1.7-4h7v12h12v7.3l-12 .3-.1 11.1V87l-.1 3.8V92a26.6 26.6 0 0 0 .2 3.3 9.7 9.7 0 0 0 .8 3 5.3 5.3 0 0 0 1.8 2.1 5 5 0 0 0 3 .8 8 8 0 0 0 1.4-.1 8.1 8.1 0 0 0 2-.8 12.3 12.3 0 0 0 2.5-1.8 17.5 17.5 0 0 0 2.7-3l4.6 4.3a27.3 27.3 0 0 1-5.2 5.8 20.6 20.6 0 0 1-5 3.1 15.4 15.4 0 0 1-4.3 1.2l-3.3.2a22.2 22.2 0 0 1-3.2-.3 13.9 13.9 0 0 1-3.4-1 11.6 11.6 0 0 1-3.1-2 12.3 12.3 0 0 1-2.6-3.2 18.2 18.2 0 0 1-1.8-5 31.8 31.8 0 0 1-.6-6.8l.1-23-6.5.1zm42.6 11a9 9 0 0 1 1.6-5.1 13.4 13.4 0 0 1 4.2-4 22.7 22.7 0 0 1 6.4-2.5 32.4 32.4 0 0 1 7.9-1 24.1 24.1 0 0 1 7.4 1.1 13.8 13.8 0 0 1 5.5 3.3 14.4 14.4 0 0 1 3.5 5.7 25 25 0 0 1 1.1 8.1V97a64.1 64.1 0 0 1-.3 4.6l6.1-.3v7.2h-18a36.8 36.8 0 0 1-.3-4.3h-.1a19.2 19.2 0 0 1-6.8 4.6 20.7 20.7 0 0 1-7.3 1.3 14.9 14.9 0 0 1-5.5-1 11.2 11.2 0 0 1-4-2.6 11.8 11.8 0 0 1-2.5-4 13.9 13.9 0 0 1-1-5 13.3 13.3 0 0 1 1.1-5.5 14.5 14.5 0 0 1 3-4.4 19 19 0 0 1 4.4-3.2 30.7 30.7 0 0 1 5.5-2.4 43.2 43.2 0 0 1 6.2-1.4 56.2 56.2 0 0 1 6.4-.7v-5a17.9 17.9 0 0 0-.4-3.4 7.5 7.5 0 0 0-1-2.8 5.4 5.4 0 0 0-2.2-1.8 6.8 6.8 0 0 0-3.2-.6 10.7 10.7 0 0 0-3.6.8 8.5 8.5 0 0 0-3 2 3.7 3.7 0 0 1 1 1.7 9.2 9.2 0 0 1 .2 1.7 6.2 6.2 0 0 1-.3 2.1 5.7 5.7 0 0 1-1.2 2 6.2 6.2 0 0 1-2 1.3 6.9 6.9 0 0 1-2.9.6 6.2 6.2 0 0 1-2.5-.6 5.6 5.6 0 0 1-1.8-1.4 6 6 0 0 1-1.2-2 7.7 7.7 0 0 1-.4-2.5zm24.4 14.6a28.3 28.3 0 0 0-5 1 15.4 15.4 0 0 0-4.2 1.8 9 9 0 0 0-2.7 2.8 6.7 6.7 0 0 0-1 3.6 5.5 5.5 0 0 0 .5 2.3 4.7 4.7 0 0 0 1.2 1.5 4.6 4.6 0 0 0 1.6.9 7 7 0 0 0 2 .3 9.3 9.3 0 0 0 4.1-1 11.2 11.2 0 0 0 3.4-2.5z"/>
  </g>
  <g filter="url(#c)" transform="translate(5 -3.4) scale(1.09925)">
    <path fill="#188dc8" d="M51.2 68.3h9.4v-8.9h-8.1a31.8 31.8 0 0 0-1.3 8.9zm.5 9.7a32.4 32.4 0 0 1-1.3-9h-7.8a18.4 18.4 0 0 0 2.5 9zm-9.1-9.7h7.8a32.4 32.4 0 0 1 1.3-8.9H45a18.4 18.4 0 0 0-2.5 8.9zm27.5-9.7h6.4a18.4 18.4 0 0 0-11.5-8c2.2 1.7 4 4.5 5.1 8zM60.6 78v-9h-9.4a31.8 31.8 0 0 0 1.3 9zm9-18.6h-8.2v8.9H71a31.8 31.8 0 0 0-1.3-8.9z"/>
    <path fill="#188dc8" d="M62.6 50.3h-1.2v8.3h8c-1.6-4.3-4-7.4-6.8-8.3zm-9.9 8.3h8v-8.3h-1.2c-2.8.9-5.3 4-6.8 8.3zm-.8 20.1h-6.3a18.4 18.4 0 0 0 11.4 8 16.6 16.6 0 0 1-5.1-8zm18.5-19.3a32.4 32.4 0 0 1 1.3 8.9h7.7a18.4 18.4 0 0 0-2.4-8.9z"/>
    <path fill="#188dc8" d="M51.9 58.6c1.2-3.5 3-6.3 5.1-8a18.4 18.4 0 0 0-11.4 8zm18.2 20.1c-1.2 3.6-3 6.4-5 8a18.4 18.4 0 0 0 11.4-8zM59.5 87l1.1.1v-8.4h-7.9c1.5 4.4 4 7.5 6.8 8.3z"/>
    <path fill="#188dc8" d="M69.3 78.7h-7.9v8.4h1.2c2.8-1 5.2-4 6.7-8.4zm1.6-9.7h-9.5v9h8.2a31.8 31.8 0 0 0 1.3-9zm8.5 0h-7.7a32.4 32.4 0 0 1-1.3 9H77a18.4 18.4 0 0 0 2.4-9z"/>
    <path fill="#166db7" d="M110.8 79.2a9.6 9.6 0 0 0 .9-.8v-.1a13.4 13.4 0 0 0 0-19 13.3 13.3 0 0 0-1.6-1.3s-7-4.7-6.4-17.1a10.4 10.4 0 0 0 0-1.2 13.4 13.4 0 0 0-13.4-13.5 13.7 13.7 0 0 0-2.1.2s-8.3 1.7-16.7-7.5a9.5 9.5 0 0 0-.8-.8V18a13.3 13.3 0 0 0-20.4 1.6s-4.7 7-17 6.4a10.4 10.4 0 0 0-1.2 0H32a13.3 13.3 0 0 0-13.2 15.5s1.6 8.4-7.6 16.7a10 10 0 0 0-.8.8 13.3 13.3 0 0 0 1.5 20.4s7.1 4.7 6.5 17a10.4 10.4 0 0 0 0 1.2v.1A13.3 13.3 0 0 0 33.9 111s8.3-1.7 16.6 7.5a10 10 0 0 0 .8.8h.1a13.3 13.3 0 0 0 20.3-1.5s4.7-7 17.1-6.5a9.2 9.2 0 0 0 1.2 0 13.3 13.3 0 0 0 13.3-15.5s-1.7-8.3 7.5-16.6zm-8.4-2.7a8.1 8.1 0 0 1-.7.7c-7.5 6.9-6.1 13.6-6.1 13.6a10.9 10.9 0 0 1-10.8 12.7h-.1a8 8 0 0 1-1 0c-10-.5-14 5.3-14 5.3a10.9 10.9 0 0 1-16.5 1.3 8.2 8.2 0 0 1-.7-.7c-6.8-7.6-13.6-6.2-13.6-6.2a10.9 10.9 0 0 1-12.7-10.8 8 8 0 0 1 0-1c.5-10.1-5.3-14-5.3-14a10.9 10.9 0 0 1-1.3-16.6 7.7 7.7 0 0 1 .7-.7c7.6-6.8 6.2-13.6 6.2-13.6A10.9 10.9 0 0 1 37.3 34a8 8 0 0 1 1 0c10.1.5 14-5.3 14-5.3a10.9 10.9 0 0 1 16.6-1.3 8.1 8.1 0 0 1 .7.7c6.8 7.5 13.6 6.1 13.6 6.1A10.9 10.9 0 0 1 95.8 45a8 8 0 0 1 0 1c-.5 10.1 5.3 14 5.3 14a10.9 10.9 0 0 1 1.3 16.5z"/>
    <path fill="#8ec13f" d="m60.9 48.3-4-6.2-2.7-4.5a7.5 7.5 0 0 1 .7-8.4A7.6 7.6 0 0 1 68.5 33a7.1 7.1 0 0 1-1 4.7L61 48l-.1.2zm0-17.7a3.4 3.4 0 1 0 3.4 3.3 3.4 3.4 0 0 0-3.4-3.3zm14.4 23.6L77 47l1.3-5.1a7.5 7.5 0 0 1 6.4-5.5 7.6 7.6 0 0 1 7 12.3 7.1 7.1 0 0 1-4 2.7l-12 2.8h-.3zM88 41.6a3.4 3.4 0 1 0 0 4.8 3.4 3.4 0 0 0 0-4.8zM46.5 54.4l-7.2-1.6-5-1.3a7.5 7.5 0 0 1-5.5-6.4A7.6 7.6 0 0 1 41 38a7.1 7.1 0 0 1 2.7 4l2.8 12v.3zM34 41.8a3.4 3.4 0 1 0 4.7 0 3.4 3.4 0 0 0-4.7 0zm6.7 27-6.3 4-4.5 2.7a7.5 7.5 0 0 1-8.4-.7 7.6 7.6 0 0 1 3.8-13.6 7.1 7.1 0 0 1 4.7 1l10.5 6.5.2.1zm-17.8 0a3.4 3.4 0 1 0 3.3-3.4 3.4 3.4 0 0 0-3.3 3.4zm23.8 14.4-1.6 7.2-1.2 5a7.5 7.5 0 0 1-6.5 5.5 7.6 7.6 0 0 1-6.9-12.2 7.1 7.1 0 0 1 4-2.7l12-2.8a2.2 2.2 0 0 1 .2 0zM34.2 95.7a3.4 3.4 0 1 0 0-4.7 3.4 3.4 0 0 0 0 4.7zm27-6.7 4 6.3 2.7 4.5a7.5 7.5 0 0 1-.8 8.4 7.6 7.6 0 0 1-13.5-3.8 7.1 7.1 0 0 1 1-4.7c2-3.5 4.3-7 6.4-10.5l.2-.2zm0 17.8a3.4 3.4 0 1 0-3.4-3.3 3.4 3.4 0 0 0 3.4 3.3zm20.2-38.3 6.2-4 4.5-2.6a7.5 7.5 0 0 1 8.4.7A7.6 7.6 0 0 1 96.7 76a7.2 7.2 0 0 1-4.7-.9l-10.4-6.5-.2-.2zm17.7 0a3.4 3.4 0 1 0-3.3 3.4 3.4 3.4 0 0 0 3.3-3.4zM75.5 83l7.2 1.6 5.1 1.2a7.5 7.5 0 0 1 5.5 6.5 7.6 7.6 0 0 1-12.3 7 7.1 7.1 0 0 1-2.7-4l-2.7-12V83zm12.6 12.5a3.4 3.4 0 1 0-4.8 0 3.4 3.4 0 0 0 4.8 0z"/>
  </g>
</svg>
