<svg width="148" height="40" viewBox="0 0 148 40" fill="none" xmlns="http://www.w3.org/2000/svg">
<path d="M16.9466 33.7082C16.4114 33.726 15.8771 33.639 15.3743 33.4513C14.8137 33.2421 14.3055 32.9129 13.8855 32.4868C13.8821 32.4834 13.8791 32.4799 13.8761 32.4764C13.8722 32.4719 13.8683 32.4674 13.864 32.4635C13.7754 32.3851 13.6914 32.3017 13.6124 32.2137C11.0437 29.3753 8.47667 29.8974 8.47667 29.8974V29.8931C7.88634 29.99 7.28197 29.9569 6.70577 29.796C6.12956 29.6352 5.59542 29.3505 5.14064 28.9619C4.68586 28.5732 4.32141 28.0899 4.07275 27.5458C3.8241 27.0017 3.69722 26.4099 3.70099 25.8117V25.7807C3.69444 25.6627 3.69444 25.5446 3.70099 25.4266C3.89136 21.6028 1.71284 20.1591 1.71284 20.1591V20.1539C1.22694 19.805 0.823045 19.3543 0.529374 18.8332C0.235703 18.312 0.059331 17.7331 0.0125746 17.1368C-0.0341818 16.5404 0.0498043 15.941 0.258668 15.3805C0.467533 14.82 0.79624 14.3118 1.22183 13.8915L1.24509 13.8699C1.3235 13.7814 1.4069 13.6974 1.4949 13.6184C4.33327 11.0497 3.81039 8.48265 3.81039 8.48265H3.81555C3.71769 7.89219 3.75014 7.28748 3.91062 6.71088C4.0711 6.13429 4.35574 5.59976 4.74459 5.14477C5.13343 4.68978 5.61707 4.32533 6.16162 4.07696C6.70617 3.82859 7.29844 3.70231 7.89694 3.70698H7.92795C8.04587 3.70043 8.16407 3.70043 8.28199 3.70698C12.1058 3.89735 13.5521 1.71281 13.5521 1.71281H13.5573C13.9061 1.22684 14.3569 0.822903 14.8781 0.529224C15.3992 0.235545 15.9782 0.0592057 16.5746 0.012528C17.171 -0.0341497 17.7704 0.0499598 18.3309 0.258979C18.8915 0.467999 19.3996 0.796887 19.8198 1.22266L19.8413 1.24592C19.9301 1.32378 20.0141 1.40692 20.0928 1.49487C22.6616 4.33322 25.2286 3.81121 25.2286 3.81121C25.44 3.77693 25.6536 3.75879 25.8678 3.75694C26.631 3.75694 27.3724 3.96794 28.0141 4.35763C25.9285 4.42756 23.4142 4.68433 21.7905 5.31857C21.5494 5.41277 21.3234 5.51617 21.1105 5.62812C20.5965 5.34006 20.0441 4.91966 19.4916 4.3091C19.4269 4.23743 19.3582 4.16956 19.2857 4.10581L19.2685 4.08686C18.925 3.7398 18.5099 3.4718 18.0522 3.30152C17.5946 3.13125 17.1053 3.06279 16.6185 3.10092C16.1316 3.13905 15.659 3.28285 15.2334 3.5223C14.8078 3.76176 14.4396 4.09111 14.1543 4.48742C14.1543 4.48742 12.9698 6.2714 9.84718 6.11549C9.75079 6.10981 9.65414 6.10981 9.55775 6.11549H9.5319C9.0436 6.11302 8.56063 6.21702 8.11663 6.42026C7.67263 6.6235 7.27827 6.92108 6.96102 7.29229C6.64377 7.66349 6.41125 8.09939 6.27966 8.56963C6.14807 9.03988 6.12058 9.53315 6.19909 10.0151C6.19909 10.0151 6.62204 12.1118 4.30398 14.2093C4.23298 14.2738 4.16596 14.3426 4.10327 14.4152C4.1007 14.4178 4.09799 14.42 4.09524 14.4223C4.09154 14.4254 4.08778 14.4285 4.08432 14.4324C3.73658 14.7755 3.46798 15.1904 3.29728 15.6481C3.12657 16.1058 3.0579 16.5952 3.09605 17.0822C3.1342 17.5692 3.27825 18.042 3.51814 18.4675C3.75803 18.893 4.08796 19.261 4.48487 19.5458V19.5509C4.48487 19.5509 6.26886 20.7311 6.11295 23.8537C6.10727 23.9501 6.10727 24.0467 6.11295 24.1431V24.1681C6.10861 24.6573 6.21139 25.1415 6.41407 25.5868C6.61674 26.032 6.91441 26.4276 7.28618 26.7456C7.65794 27.0636 8.0948 27.2963 8.56609 27.4276C9.03738 27.5588 9.53168 27.5853 10.0143 27.5052V27.5095C10.0143 27.5095 12.111 27.0788 14.2102 29.396C14.2747 29.4673 14.3431 29.5349 14.4153 29.5985L14.4325 29.6174C14.776 29.9645 15.1911 30.2325 15.6487 30.4027C15.7141 30.4271 15.7801 30.4493 15.8466 30.4694C16.121 31.5182 16.4755 32.636 16.9466 33.7082Z" fill="#0068C7"/>
<path d="M16.8032 10.5724C16.3889 9.9194 15.9814 9.28626 15.5834 8.64796C15.2983 8.19055 15.0149 7.73228 14.747 7.26453C14.5205 6.85957 14.4203 6.39611 14.4593 5.93376C14.4983 5.4714 14.6747 5.03127 14.9658 4.66996C15.2541 4.30646 15.6433 4.03614 16.0845 3.89288C16.5258 3.74961 16.9996 3.73977 17.4464 3.86459C17.8932 3.98941 18.2933 4.24333 18.5965 4.59454C18.8996 4.94574 19.0924 5.37861 19.1506 5.83889C19.2259 6.34266 19.1239 6.85695 18.862 7.29382C18.1996 8.36972 17.5251 9.43787 16.8557 10.5095C16.8471 10.5233 16.8342 10.5396 16.8032 10.5724ZM16.8092 5.10669C16.6046 5.10824 16.405 5.17051 16.2357 5.2856C16.0665 5.4007 15.9353 5.56344 15.8586 5.7532C15.7819 5.94296 15.7634 6.15121 15.8052 6.35155C15.847 6.5519 15.9473 6.73532 16.0935 6.87858C16.2397 7.02184 16.425 7.11849 16.6262 7.15628C16.8273 7.19407 17.0352 7.1713 17.2234 7.09086C17.4115 7.01042 17.5716 6.87592 17.6833 6.70441C17.795 6.53291 17.8532 6.33211 17.8507 6.12747C17.8444 5.85514 17.732 5.59603 17.5375 5.40536C17.3429 5.21469 17.0816 5.10752 16.8092 5.10669Z" fill="#3EAE2B"/>
<path d="M12.3772 12.4459C11.6217 12.2736 10.8869 12.1169 10.1539 11.9472C9.62842 11.8257 9.10382 11.7017 8.58439 11.5604C8.1378 11.4343 7.73912 11.1776 7.43963 10.8231C7.14014 10.4687 6.95352 10.0328 6.90377 9.57139C6.85088 9.11056 6.93511 8.64436 7.14591 8.23117C7.35671 7.81797 7.68471 7.47614 8.08885 7.24846C8.49299 7.02078 8.95531 6.91737 9.41794 6.95118C9.88057 6.98499 10.3229 7.15452 10.6897 7.43854C11.0992 7.74187 11.3908 8.17782 11.5149 8.67208C11.8069 9.90045 12.0852 11.1331 12.3694 12.3641C12.3729 12.3805 12.3729 12.3977 12.3772 12.4459ZM8.51633 8.57646C8.37274 8.72229 8.27567 8.90745 8.23741 9.10849C8.19915 9.30953 8.22142 9.51741 8.30141 9.70578C8.38141 9.89415 8.51551 10.0545 8.68674 10.1666C8.85797 10.2787 9.05862 10.3374 9.26326 10.3354C9.4679 10.3333 9.66733 10.2706 9.83627 10.1551C10.0052 10.0396 10.1361 9.87653 10.2123 9.68659C10.2885 9.49665 10.3066 9.28837 10.2643 9.08814C10.222 8.8879 10.1212 8.70473 9.97471 8.56182C9.77769 8.37366 9.51497 8.26988 9.24254 8.27262C8.97012 8.27536 8.70954 8.38438 8.51633 8.57646Z" fill="#3EAE2B"/>
<path d="M10.5716 16.9004C9.91868 17.3147 9.28554 17.7213 8.64723 18.1201C8.19068 18.4053 7.73155 18.6887 7.2638 18.9557C6.85925 19.1829 6.39586 19.2836 5.93349 19.2448C5.47112 19.2059 5.03103 19.0293 4.67008 18.7378C4.3066 18.4495 4.03628 18.0604 3.89297 17.6192C3.74966 17.178 3.73975 16.7043 3.86447 16.2575C3.98919 15.8107 4.24299 15.4106 4.59408 15.1074C4.94518 14.8042 5.37794 14.6114 5.83816 14.553C6.34221 14.4773 6.85691 14.5793 7.29395 14.8416C8.36899 15.504 9.43715 16.1776 10.5087 16.8478C10.5225 16.8564 10.5346 16.8694 10.5716 16.9004ZM5.10681 16.8943C5.10854 17.099 5.17097 17.2985 5.28621 17.4677C5.40144 17.6368 5.56429 17.7679 5.75412 17.8444C5.94395 17.9209 6.15221 17.9393 6.35252 17.8974C6.55283 17.8554 6.73617 17.7549 6.8793 17.6086C7.02244 17.4623 7.11894 17.2768 7.15656 17.0757C7.19418 16.8745 7.17124 16.6667 7.09064 16.4786C7.01004 16.2904 6.87541 16.1305 6.70382 16.0189C6.53222 15.9074 6.33137 15.8493 6.12673 15.852C5.85433 15.8583 5.59519 15.9709 5.40463 16.1656C5.21407 16.3604 5.10719 16.6219 5.10681 16.8943Z" fill="#3EAE2B"/>
<path d="M12.4452 21.3263C12.2729 22.0809 12.117 22.8165 11.9473 23.5496C11.8259 24.0742 11.701 24.5988 11.5597 25.1191C11.4343 25.5658 11.1778 25.9646 10.8234 26.2641C10.469 26.5635 10.0329 26.7498 9.57154 26.7989C9.11072 26.852 8.64446 26.768 8.23118 26.5573C7.8179 26.3466 7.47598 26.0187 7.24826 25.6146C7.02053 25.2104 6.91713 24.7481 6.951 24.2855C6.98487 23.8228 7.15451 23.3805 7.43867 23.0138C7.74119 22.6039 8.17705 22.3121 8.67136 22.1886C9.9006 21.8966 11.1324 21.6175 12.3634 21.3341C12.3905 21.3298 12.4178 21.3273 12.4452 21.3263ZM8.5766 25.1837C8.72246 25.3273 8.90768 25.4244 9.10878 25.4627C9.30988 25.5009 9.51781 25.4786 9.7062 25.3985C9.8946 25.3184 10.055 25.1842 10.167 25.0129C10.279 24.8416 10.3377 24.6409 10.3355 24.4362C10.3333 24.2315 10.2704 24.032 10.1548 23.8631C10.0391 23.6942 9.87593 23.5635 9.68587 23.4874C9.49582 23.4114 9.28746 23.3935 9.08722 23.436C8.88698 23.4785 8.70387 23.5795 8.5611 23.7262C8.3729 23.9231 8.26916 24.1858 8.27206 24.4581C8.27496 24.7305 8.38426 24.9909 8.5766 25.1837Z" fill="#3EAE2B"/>
<path d="M19.9462 24.5763C23.5289 24.5763 26.6388 21.5824 26.8923 17.8892C27.1459 14.1961 24.4471 11.2022 20.8644 11.2022C17.2817 11.2022 14.1718 14.1961 13.9182 17.8892C13.6647 21.5824 16.3635 24.5763 19.9462 24.5763Z" fill="#3EAE2B"/>
<path d="M13.9878 16.544C13.9581 16.6541 13.931 16.7651 13.9066 16.877C13.8822 16.989 13.8603 17.1018 13.8412 17.2156C13.8029 17.4429 13.7755 17.6736 13.7594 17.9071C13.7434 18.1406 13.7392 18.3713 13.7462 18.5987C13.7497 18.7124 13.756 18.8253 13.7651 18.9372C13.7742 19.0491 13.7861 19.1603 13.8006 19.2703C13.8151 19.3803 13.8323 19.4894 13.8521 19.5975C13.8919 19.8136 13.942 20.0255 14.0021 20.2327C14.0322 20.3363 14.0648 20.4387 14.0998 20.5398C14.1347 20.6409 14.1722 20.7409 14.212 20.8395C14.2318 20.8887 14.2524 20.9377 14.2734 20.9863C14.3156 21.0835 14.36 21.1794 14.4068 21.2738C14.5471 21.5571 14.7077 21.8274 14.887 22.083C14.9767 22.2107 15.071 22.3348 15.1698 22.4549C15.2356 22.5351 15.3034 22.6134 15.3732 22.6898C15.443 22.7664 15.5146 22.841 15.5881 22.9138C15.9189 23.2413 16.2871 23.5305 16.6869 23.7748C16.7757 23.8291 16.8661 23.8812 16.958 23.931C17.1418 24.0306 17.3316 24.121 17.5268 24.2018C17.6244 24.2422 17.7234 24.2801 17.8236 24.3156C18.4754 24.546 19.1821 24.671 19.9259 24.671C20.4331 24.671 20.9308 24.6127 21.4129 24.5027C21.6379 24.4514 21.8596 24.389 22.0771 24.3156C22.1822 24.2802 22.2863 24.2422 22.3896 24.2019C22.5958 24.1212 22.798 24.0307 22.9955 23.931C23.0942 23.8813 23.1918 23.8292 23.288 23.7749C23.7214 23.5306 24.1293 23.2414 24.505 22.9139C24.5886 22.8411 24.6705 22.7664 24.7507 22.6899C24.8309 22.6134 24.9096 22.5351 24.9864 22.455C25.1017 22.3349 25.213 22.2109 25.3202 22.0831C25.4899 21.8809 25.6487 21.6694 25.7965 21.4497C25.8356 21.3916 25.8741 21.3331 25.9116 21.2738C25.9713 21.1795 26.029 21.0836 26.0844 20.9864C26.1122 20.9377 26.1393 20.8888 26.166 20.8395C26.2194 20.741 26.2705 20.6411 26.3194 20.5399C26.3683 20.4388 26.4149 20.3364 26.4592 20.2327C26.5478 20.0256 26.627 19.8136 26.6964 19.5976C26.7311 19.4895 26.7634 19.3804 26.7929 19.2704C26.8225 19.1603 26.8497 19.0492 26.8741 18.9373C26.8985 18.8253 26.9204 18.7125 26.9395 18.5988C26.9778 18.3714 27.0053 18.1407 27.0213 17.9072C27.0373 17.6737 27.0415 17.443 27.0345 17.2157C27.031 17.1019 27.0247 16.9891 27.0156 16.8771C27.0065 16.7652 26.9946 16.6541 26.9801 16.5441C26.9656 16.434 26.9484 16.3249 26.9285 16.2169C26.8888 16.0008 26.8387 15.7888 26.7785 15.5817C26.7635 15.5299 26.7478 15.4783 26.7316 15.4271C26.6827 15.2736 26.6284 15.1227 26.5687 14.9749C26.5488 14.9256 26.5282 14.8766 26.5072 14.828C26.4651 14.7308 26.4206 14.6349 26.3738 14.5405C26.2335 14.2573 26.0729 13.9869 25.8936 13.7314C25.8039 13.6036 25.7096 13.4795 25.6108 13.3594C25.545 13.2793 25.4772 13.201 25.4074 13.1245C25.3377 13.048 25.266 12.9733 25.1925 12.9005C25.0501 12.7595 24.9007 12.6259 24.7449 12.4996C24.5387 12.3326 24.3214 12.1787 24.0937 12.0396C24.0049 11.9853 23.9145 11.9332 23.8226 11.8834C23.7808 11.8608 23.7386 11.8387 23.6963 11.8171C23.6454 11.7911 23.5942 11.7656 23.5425 11.741C23.5208 11.7307 23.4989 11.7209 23.4772 11.7109C23.4035 11.6768 23.3292 11.6438 23.2538 11.6127C23.2528 11.6122 23.2517 11.6119 23.2507 11.6114C23.1703 11.5782 23.0889 11.5471 23.0067 11.5172C22.9901 11.5112 22.9737 11.5047 22.957 11.4989C22.7652 11.4311 22.5687 11.3727 22.368 11.3237C22.3052 11.3084 22.2422 11.2938 22.1787 11.2803C22.1329 11.2707 22.0868 11.2617 22.0406 11.253C21.6963 11.1883 21.3405 11.1517 20.9755 11.1451C20.9352 11.1443 20.8951 11.1435 20.8546 11.1435C20.7858 11.1435 20.7173 11.1449 20.6489 11.147C19.9773 11.1679 19.3237 11.2898 18.7034 11.4989C18.5983 11.5344 18.4941 11.5723 18.3909 11.6127C18.359 11.6252 18.3275 11.6383 18.2957 11.6512C18.2249 11.6802 18.1544 11.7098 18.0846 11.741C17.9836 11.7862 17.8837 11.8337 17.785 11.8835C17.6863 11.9333 17.5887 11.9854 17.4924 12.0397C17.105 12.2581 16.738 12.5124 16.396 12.7979C16.3555 12.8317 16.3153 12.8659 16.2754 12.9006C16.1919 12.9734 16.11 13.0481 16.0298 13.1246C15.9496 13.2011 15.8709 13.2794 15.7941 13.3595C15.6788 13.4796 15.5674 13.6036 15.4602 13.7314C15.2458 13.9869 15.048 14.2573 14.8689 14.5406C14.8091 14.635 14.7515 14.7309 14.696 14.8281C14.6683 14.8767 14.6411 14.9257 14.6144 14.9749C14.5344 15.1228 14.4594 15.2736 14.3894 15.4272C14.3661 15.4784 14.3433 15.5299 14.3212 15.5817C14.2326 15.7889 14.1534 16.0008 14.084 16.2169C14.0496 16.3248 14.0174 16.434 13.9878 16.544ZM19.6992 11.608C19.7106 11.6305 19.7197 11.6564 19.7507 11.6662C19.815 11.6334 19.8745 11.6684 19.943 11.6662C20.0098 11.6638 20.0714 11.6327 20.144 11.6444C20.2723 11.6651 20.4446 11.7945 20.5517 11.7243C20.5786 11.7066 20.5746 11.676 20.601 11.63C20.622 11.5932 20.6537 11.5525 20.6745 11.5072C20.7262 11.5059 20.7779 11.5052 20.8299 11.5052C21.2587 11.5052 21.6746 11.5494 22.0738 11.6333C22.0537 11.6789 21.9993 11.6586 21.9511 11.6806C21.9058 11.7014 21.8865 11.7442 21.8392 11.7532C21.708 11.7781 21.6046 11.7201 21.4922 11.7243C21.4835 11.7737 21.5422 11.8025 21.5712 11.8184C21.6691 11.8728 21.7523 11.8653 21.8958 11.8621C21.9694 11.8604 22.0521 11.8844 22.1182 11.8402C22.1601 11.8124 22.1622 11.751 22.198 11.717C22.2132 11.7026 22.2351 11.6881 22.2596 11.6758C22.3288 11.6927 22.3974 11.7111 22.4656 11.7304C22.4505 11.7793 22.3737 11.7675 22.3682 11.8331C22.4157 11.8634 22.5341 11.8165 22.5822 11.7648C22.599 11.77 22.616 11.7752 22.6328 11.7805C22.7314 11.8117 22.8288 11.8454 22.9249 11.8816C23.0619 11.9332 23.1962 11.9899 23.3277 12.0512C23.3005 12.0669 23.2714 12.087 23.2485 12.0869C23.1896 12.0865 23.17 12.0063 23.1022 12.036C23.0912 12.1137 23.1754 12.1451 23.2276 12.181C23.2842 12.2199 23.3437 12.2586 23.3601 12.3261C23.2936 12.4514 23.2102 12.3195 23.1184 12.319C23.0174 12.3182 22.8563 12.5149 22.7811 12.3552C22.8084 12.2705 22.9008 12.2574 22.9289 12.1738C22.909 12.1772 22.8896 12.1837 22.8701 12.1915C22.8353 12.2052 22.8007 12.2236 22.7648 12.2426C22.7178 12.2674 22.6684 12.2922 22.6136 12.3045C22.5632 12.3156 22.5149 12.3129 22.4696 12.3261C22.3826 12.3516 22.3187 12.4157 22.2262 12.4496C22.19 12.4628 22.1482 12.4587 22.1106 12.4712C22.0226 12.5005 21.916 12.5529 21.8239 12.6019C21.7297 12.6518 21.6238 12.7044 21.5641 12.7542C21.5319 12.781 21.4461 12.8762 21.4468 12.9064C21.4474 12.9496 21.5263 12.9639 21.5253 13.008C21.5216 13.0348 21.4732 13.0925 21.5026 13.1314C21.5293 13.1667 21.5897 13.1381 21.6511 13.1458C21.759 13.1596 21.824 13.2512 21.9042 13.2982C21.965 13.3337 22.0558 13.376 22.1265 13.3852C22.2235 13.3977 22.3359 13.3561 22.3437 13.436C22.3514 13.5127 22.2445 13.5401 22.2336 13.5883C22.2814 13.6592 22.1906 13.6931 22.1866 13.7552C22.1833 13.8056 22.2387 13.8811 22.2915 13.8857C22.3629 13.8919 22.4733 13.8137 22.5082 13.7406C22.5496 13.6536 22.5426 13.5356 22.6121 13.4722C22.9434 13.4816 23.2354 13.3187 23.2378 12.9718C23.2381 12.9375 23.222 12.8934 23.2317 12.8557C23.2459 12.7996 23.3438 12.7525 23.3361 12.6816C23.3727 12.6704 23.3961 12.6409 23.4167 12.6077C23.4474 12.5582 23.4725 12.5017 23.5245 12.4831C23.5282 12.4817 23.5313 12.4794 23.5353 12.4785C23.5648 12.4719 23.5948 12.4778 23.626 12.4874C23.6817 12.5045 23.7414 12.534 23.8096 12.5293C23.8443 12.5269 23.8913 12.4954 23.9256 12.5004C23.9946 12.5103 24.0305 12.5977 24.08 12.6382C24.1238 12.6742 24.1734 12.6627 24.1819 12.7107C24.1627 12.7912 24.1076 12.7942 24.1069 12.8682C24.107 12.869 24.1068 12.8695 24.1067 12.8703C24.1074 12.9368 24.1718 12.9872 24.2051 12.9938C24.2564 13.0037 24.3327 12.9753 24.3862 12.9502C24.4441 12.9232 24.4992 12.8649 24.5509 12.8244C24.617 12.879 24.6818 12.935 24.7454 12.9924C24.7509 13.0247 24.7543 13.0537 24.7554 13.0734C24.76 13.1518 24.7355 13.2117 24.734 13.2839C24.7347 13.4062 24.8869 13.3938 24.957 13.4579C24.9781 13.4774 24.9835 13.527 25.0005 13.5522C25.0333 13.6014 25.077 13.6014 25.079 13.6537C25.0837 13.779 24.9581 13.7896 24.9602 13.9294C24.9307 13.9836 24.866 13.9803 24.8663 14.0527C24.8667 14.1672 25.0343 14.0794 25.072 14.1688C25.0925 14.2168 25.0624 14.2525 25.0402 14.321C25.0909 14.388 25.0831 14.495 24.9856 14.4951C24.9264 14.4951 24.9145 14.4303 24.8556 14.4153C24.8229 14.4068 24.7775 14.4085 24.7356 14.4008C24.6997 14.3942 24.6573 14.3833 24.6232 14.379C24.536 14.3684 24.4389 14.3945 24.3905 14.3428C24.4831 14.2282 24.6035 14.1152 24.7193 14.0164C24.7537 13.9869 24.8247 13.9667 24.8122 13.9076C24.7553 13.8534 24.6769 13.9109 24.6174 13.9439C24.555 13.9783 24.4799 14.0279 24.4114 14.0382C24.2924 14.056 24.1397 14.003 24.039 14.0671C24.022 14.1219 24.1463 14.1006 24.1235 14.1832C24.0759 14.1911 24.031 14.195 23.997 14.1614C23.9659 14.131 23.988 14.0854 23.9678 14.0671C23.9335 14.0362 23.7967 14.0278 23.7347 14.0381C23.659 14.0506 23.5896 14.0962 23.5765 14.1614C23.6635 14.2043 23.8177 14.1173 23.8428 14.2268C23.7873 14.3171 23.6679 14.3668 23.6752 14.4878C23.6781 14.5345 23.7283 14.597 23.767 14.6039C23.806 14.6108 23.8309 14.5711 23.8687 14.5748C23.9087 14.5786 23.8963 14.6255 23.9441 14.6184C24.0148 14.5886 24.0594 14.4906 24.1377 14.4951C24.224 14.6117 24.0407 14.6685 23.9382 14.7054C23.8212 14.7475 23.6714 14.7699 23.582 14.8071C23.5351 14.8265 23.3512 14.9962 23.3358 14.865C23.3249 14.7704 23.4257 14.7978 23.4526 14.72C23.3439 14.6981 23.2363 14.7683 23.1333 14.8072C22.9863 14.8623 22.7412 14.8973 22.6954 15.061C22.6863 15.0938 22.7029 15.1552 22.6804 15.177C22.6621 15.1946 22.5597 15.1978 22.514 15.2132C22.4436 15.2373 22.3802 15.2886 22.3369 15.3003C22.3043 15.3092 22.2571 15.3067 22.2362 15.315C22.1781 15.3373 22.1518 15.4153 22.0833 15.4672C22.0553 15.4883 21.9951 15.5038 21.9725 15.5252C21.933 15.5626 21.9217 15.6562 21.8557 15.6702C21.8141 15.6739 21.7828 15.6385 21.7421 15.6629C21.7311 15.7554 21.7592 15.8813 21.7137 15.9748C21.6245 16.0449 21.5285 16.0944 21.4163 16.1562C21.3542 16.1905 21.3001 16.1992 21.2255 16.236C21.1726 16.262 21.1216 16.3239 21.0603 16.3593C20.9187 16.4408 20.7478 16.5373 20.7347 16.7438C20.7318 16.7885 20.7512 16.8367 20.7532 16.8889C20.7545 16.9197 20.7454 16.9497 20.7467 16.9832C20.7499 17.059 20.7973 17.1556 20.7313 17.208C20.6381 17.1679 20.5171 17.1543 20.4548 17.0847C20.4413 17.0131 20.5009 16.9541 20.4968 16.8889C20.4936 16.8365 20.4277 16.7432 20.386 16.7365C20.3432 16.7295 20.3 16.7764 20.2555 16.7727C20.2025 16.7684 20.1581 16.6938 20.0903 16.6857C19.9909 16.6738 19.9147 16.709 19.8048 16.6931C19.6934 16.7515 19.6548 16.8556 19.5238 16.8453C19.4777 16.8418 19.4377 16.8057 19.3849 16.7945C19.3276 16.7823 19.2409 16.7614 19.1801 16.7656C19.0583 16.7739 18.9642 16.8627 18.8563 16.9178C18.761 16.9666 18.6267 17.0272 18.5925 17.1283C18.5738 17.1826 18.5811 17.2593 18.5586 17.3096C18.5437 17.3427 18.5142 17.3722 18.4951 17.4037C18.4051 17.5523 18.3253 17.7487 18.3713 17.9624C18.3781 17.9941 18.4452 18.1729 18.4754 18.209C18.5094 18.2491 18.6134 18.3094 18.675 18.3105C18.7271 18.3116 18.7902 18.2835 18.8414 18.2743C18.9008 18.2636 18.9742 18.2627 19.0287 18.2453C19.1862 18.1951 19.1703 17.983 19.3294 17.9115C19.3988 17.8806 19.4771 17.8743 19.5959 17.8681C19.6313 17.9003 19.6451 17.9568 19.6364 18.0059C19.6299 18.0429 19.5931 18.0764 19.571 18.1292C19.5516 18.1755 19.5445 18.2297 19.5259 18.2671C19.5013 18.316 19.4516 18.3517 19.4315 18.3977C19.4183 18.4276 19.4218 18.4648 19.4108 18.4918C19.3911 18.5396 19.3261 18.5733 19.3519 18.6225C19.5002 18.6842 19.6902 18.6049 19.8216 18.6298C19.8771 18.6402 19.9882 18.7085 19.9811 18.7967C19.9759 18.8626 19.9236 18.9059 19.9116 18.9781C19.8967 19.0689 19.8519 19.1801 19.8428 19.2536C19.8283 19.374 19.9937 19.5817 20.1196 19.58C20.2552 19.5782 20.3435 19.4429 20.5017 19.5148C20.5543 19.5387 20.6053 19.6281 20.6654 19.6236C20.715 19.62 20.7955 19.5321 20.8326 19.4712C20.8778 19.3971 20.885 19.3346 20.9584 19.2972C21.0377 19.2569 21.0972 19.2763 21.1976 19.2391C21.2424 19.2226 21.2824 19.1943 21.3237 19.1665C21.3598 19.1424 21.4006 19.0791 21.4407 19.123C21.4936 19.1808 21.3648 19.2134 21.4088 19.2754C21.504 19.3286 21.565 19.1762 21.6367 19.1739C21.6596 19.1732 21.7354 19.2191 21.7742 19.2464C21.8272 19.2836 21.8425 19.3358 21.9025 19.3479C21.941 19.3558 22.0054 19.3327 22.0598 19.3406C22.1317 19.3512 22.1707 19.4147 22.2259 19.4131C22.2931 19.4113 22.3304 19.3369 22.3886 19.326C22.516 19.3026 22.5602 19.3403 22.6101 19.4203C22.6714 19.4313 22.6794 19.3473 22.7341 19.3769C22.6987 19.4402 22.7384 19.4692 22.7598 19.522C22.7736 19.5558 22.7693 19.5799 22.7834 19.5946C22.8151 19.6275 22.8807 19.6275 22.9284 19.6597C22.9786 19.6934 23.004 19.7561 23.0594 19.8266C23.1165 19.8988 23.2158 19.9736 23.2983 19.9788C23.3762 19.984 23.4418 19.9562 23.506 19.9644C23.6521 19.9828 23.7386 20.0577 23.8361 20.1385C23.8906 20.1836 23.9404 20.2149 23.9552 20.269C23.9656 20.3067 23.9558 20.3573 23.9677 20.3996C23.993 20.4899 24.1193 20.5335 24.0618 20.6897C24.0801 20.7355 24.1269 20.752 24.1764 20.784C24.216 20.8096 24.2472 20.8638 24.2915 20.8711C24.3201 20.8758 24.3525 20.8621 24.3774 20.8638C24.458 20.8694 24.5114 20.9014 24.5797 20.9291C24.6221 20.9462 24.6774 20.9528 24.705 20.9728C24.7394 20.9977 24.7384 21.0812 24.7815 21.1032C24.8096 21.1177 24.8758 21.0977 24.924 21.1032C24.9998 21.1122 25.1003 21.16 25.1693 21.1613C25.2112 21.1622 25.2472 21.1439 25.2842 21.1468C25.3703 21.1536 25.4344 21.2093 25.4972 21.2715C24.5421 22.6828 23.0894 23.7302 21.4362 24.1305C21.4346 24.0669 21.4218 24.003 21.4233 23.9396C21.4272 23.8017 21.4545 23.7043 21.4412 23.5769C21.4313 23.4805 21.4209 23.3329 21.3909 23.2722C21.3574 23.2048 21.2154 23.0902 21.1428 23.0473C21.0949 23.0191 21.0358 23.0092 20.9834 22.9821C20.8713 22.924 20.6549 22.8017 20.612 22.6846C20.5995 22.6509 20.6046 22.6063 20.5914 22.5686C20.5655 22.4943 20.5047 22.4299 20.4634 22.3582C20.3848 22.2213 20.3255 22.0497 20.2449 21.9084C20.2041 21.8367 20.1701 21.7553 20.124 21.6981C20.097 21.6644 20.0052 21.6328 19.9967 21.5821C19.9852 21.515 19.9428 21.4229 19.9541 21.3716C19.9692 21.3023 20.1054 21.2463 20.1095 21.1831C20.113 21.1294 20.0447 21.0981 20.033 21.0525C20.0047 20.9417 20.0662 20.8765 20.1155 20.7842C20.1318 20.7538 20.149 20.705 20.1653 20.6827C20.1941 20.6427 20.2479 20.6315 20.2857 20.5883C20.3068 20.5642 20.3225 20.5137 20.3502 20.4795C20.4093 20.4062 20.4987 20.3787 20.5255 20.3126C20.5473 20.2588 20.5765 19.9893 20.5609 19.8992C20.5521 19.847 20.5074 19.8036 20.4926 19.7542C20.4664 19.6666 20.4654 19.5709 20.3767 19.5728C20.322 19.574 20.2792 19.6355 20.2415 19.6743C20.2295 19.726 20.2301 19.7818 20.176 19.7976C20.0933 19.8219 20.0699 19.7108 19.9774 19.6816C19.9406 19.6699 19.8807 19.6706 19.8579 19.6598C19.7911 19.6283 19.7759 19.5256 19.7059 19.4856C19.6474 19.4525 19.5946 19.464 19.5612 19.4131C19.5483 19.3781 19.5647 19.315 19.5642 19.268C19.4893 19.2215 19.435 19.048 19.3469 19.0071C19.2885 18.9798 19.1961 18.9823 19.1225 18.9563C19.0878 18.944 19.0616 18.9282 19.0251 18.92C18.9801 18.9096 18.9332 18.9091 18.899 18.891C18.7629 18.8197 18.7026 18.5887 18.5276 18.5937C18.453 18.5956 18.3764 18.6666 18.3089 18.6662C18.2418 18.6658 18.133 18.6116 18.0516 18.5718C17.967 18.5305 17.8717 18.5079 17.8022 18.4703C17.746 18.44 17.7093 18.3844 17.66 18.3613C17.6222 18.3437 17.5653 18.3406 17.5344 18.3252C17.4904 18.3032 17.446 18.2563 17.3922 18.2162C17.341 18.1783 17.2868 18.1204 17.2881 18.0713C17.2896 18.0146 17.3466 17.9662 17.3561 17.9116C17.3863 17.7389 17.2698 17.6147 17.1981 17.5127C17.1451 17.4369 17.0811 17.3726 17.0275 17.3024C17.0339 17.2558 17.0345 17.2474 17.0344 17.2009C16.9932 17.1571 16.9604 17.0922 16.9181 17.0267C16.8799 16.9676 16.8018 16.9045 16.7957 16.8382C16.7882 16.7567 16.8367 16.6851 16.8117 16.606C16.77 16.4747 16.5868 16.534 16.598 16.7076C16.6011 16.7554 16.663 16.8197 16.6797 16.8672C16.6969 16.9156 16.6888 16.9758 16.7039 17.0341C16.7184 17.0899 16.7703 17.1381 16.7851 17.201C16.8085 17.3003 16.8002 17.4073 16.8237 17.4694C16.8444 17.5245 16.9309 17.5766 16.8758 17.6434C16.8074 17.6577 16.7861 17.589 16.7469 17.5491C16.7251 17.5269 16.6432 17.4848 16.6339 17.4331C16.626 17.3904 16.6673 17.3329 16.6585 17.2807C16.6411 17.1783 16.4383 17.1757 16.4448 17.0704C16.449 17.0043 16.5348 16.9964 16.5399 16.9325C16.5453 16.8625 16.4551 16.8033 16.4388 16.7439C16.4241 16.6895 16.427 16.6029 16.4253 16.5263C16.4236 16.4545 16.438 16.3713 16.4254 16.3159C16.4142 16.2661 16.3454 16.1976 16.3 16.1708C16.2401 16.1354 16.1895 16.1501 16.1626 16.0983C16.1391 16.0531 16.128 15.9586 16.1256 15.9098C16.1213 15.8225 16.1358 15.7272 16.1374 15.6341C16.1391 15.5409 16.1359 15.4514 16.1568 15.3512C16.1969 15.2811 16.2635 15.2465 16.3042 15.177C16.3326 15.1287 16.3402 15.0689 16.3721 15.0175C16.4308 14.9227 16.5505 14.8352 16.6333 14.7418C16.7226 14.6411 16.8051 14.5448 16.8613 14.4298C16.8814 14.389 16.934 14.2985 16.9307 14.2484C16.9262 14.1787 16.801 14.1212 16.8169 14.0381C16.8269 13.9867 16.8988 13.9874 16.9237 13.9366C16.9365 13.9104 16.9514 13.8373 16.9541 13.806C16.96 13.736 16.9286 13.6631 16.9476 13.5884C16.9637 13.5246 17.0587 13.4988 17.0156 13.4288C16.9728 13.3595 16.8802 13.4662 16.8308 13.4215C16.7854 13.3803 16.8467 13.3305 16.8564 13.2546C16.8602 13.2245 16.8435 13.1899 16.8482 13.1676C16.8548 13.1352 16.9205 13.0806 16.9055 13.0588C16.882 13.0256 16.8585 12.9585 16.8219 12.905C17.661 12.2566 18.6447 11.8008 19.6992 11.608Z" fill="#0068C7"/>
<path d="M29.6932 37.5391C28.3074 36.8202 25.9423 30.0525 26.3829 25.0852C26.6033 24.2002 27.4794 23.5322 27.9453 22.7652C28.6683 21.575 29.019 20.2208 29.1236 18.8389C29.304 16.4574 27.6319 13.4127 27.2479 12.5169C27.437 10.5755 28.5273 7.06906 30.2672 5.53137C28.7188 5.40269 24.2395 5.43862 21.8645 6.36756C19.9248 7.12623 19.0688 8.54265 18.0035 10.203C16.9251 10.9047 15.9636 11.4769 15.0989 12.2874C13.2658 14.0055 12.2472 16.7021 12.4218 19.1959C12.5256 20.6784 13.109 22.1286 14.0192 23.2979C14.5728 24.0092 15.4269 24.5484 15.6952 25.4423C16.1223 27.425 16.8813 33.7566 20.6152 36.1263C21.8341 37.1545 26.9437 37.1048 29.6932 37.5391ZM31.6803 6.31909C30.2679 6.72029 28.8335 9.54634 28.9624 10.9284C29.5563 11.9579 29.8945 13.3921 30.1854 14.5558C30.7888 16.9686 31.0681 19.5656 30.9593 22.0513C30.8657 24.1857 30.5545 26.4232 29.9452 28.476C29.6042 29.6257 29.1705 31.0347 28.5856 32.0647C28.8922 33.3242 29.9261 37.149 31.6799 36.8639C33.4348 36.2438 34.4661 32.7085 34.8166 31.153C36.1763 25.1198 36.3184 18.8641 35.2935 12.7711C34.9967 11.0064 34.548 8.9303 33.5452 7.4199C33.1483 6.82181 32.4862 6.09013 31.6803 6.31909ZM19.7229 10.6206C24.993 9.86088 29.2024 14.3725 27.6755 19.5528C26.7187 22.7985 23.9667 24.8692 20.6539 25.2751C10.7891 26.2422 10.7457 11.9148 19.7229 10.6206Z" fill="#3EAE2B"/>
<path d="M51.5545 23.5813C51.7687 23.9041 51.9607 24.1806 52.1304 24.4079C52.2768 24.6105 52.4422 24.7985 52.6242 24.9693C52.7701 25.1063 52.9392 25.2157 53.1236 25.2921C53.312 25.365 53.5116 25.4039 53.7134 25.4072V26.6899H50.5362C50.2722 26.4856 50.0405 26.2418 49.8491 25.9672C49.6167 25.6514 49.3705 25.2795 49.1132 24.8556L47.6999 22.5259C47.5357 22.2593 47.3878 22.0371 47.2561 21.8593C47.1254 21.6825 47.0016 21.5239 46.8889 21.3835C46.7818 21.3835 46.6886 21.3934 46.6107 21.3934H46.135C46.0557 21.3934 45.9694 21.3934 45.8748 21.3835V23.4887C45.8748 23.8442 45.8688 24.1848 45.8568 24.5104C45.8506 24.7568 45.8316 25.0028 45.7997 25.2472L47.4398 25.1911V26.6927H41.7087V25.41C41.9029 25.3993 42.0965 25.3787 42.2887 25.3482C42.451 25.3242 42.6023 25.2514 42.7227 25.1391C42.8545 24.9995 42.9471 24.8271 42.9912 24.6395C43.063 24.3377 43.0948 24.0277 43.0858 23.7174V16.2512C43.0858 16.0743 43.0858 15.9003 43.0858 15.7291C43.0858 15.5579 43.0941 15.3951 43.0997 15.2393C43.1053 15.0835 43.1136 14.9432 43.1234 14.8182C43.1331 14.6933 43.1442 14.5881 43.1567 14.5053L41.7045 14.5614V13.0541L47.2005 13.0162C47.9611 13.011 48.7203 13.0834 49.4665 13.2324C50.0847 13.3484 50.6753 13.5822 51.2067 13.9215C51.6813 14.231 52.0654 14.6627 52.3195 15.1719C52.5937 15.7632 52.7262 16.4113 52.7063 17.0637C52.7131 17.4894 52.6462 17.9131 52.5087 18.3156C52.3684 18.7203 52.1558 19.0956 51.8814 19.4229C51.5788 19.7784 51.2224 20.0834 50.8256 20.3267C50.3568 20.6119 49.8506 20.8293 49.3218 20.9723V20.992C49.589 21.1059 49.8322 21.2702 50.0382 21.4762C50.2699 21.6958 50.4757 21.9416 50.6517 22.2088L51.5545 23.5813ZM46.8138 19.9857C47.2752 19.9959 47.7356 19.9368 48.1798 19.8103C48.5263 19.7093 48.8424 19.5226 49.0993 19.2671C49.3468 19.0091 49.5283 18.6941 49.6279 18.3493C49.748 17.9289 49.8052 17.4928 49.7976 17.0553C49.8063 16.6937 49.7594 16.333 49.6585 15.9859C49.5794 15.7207 49.4551 15.4713 49.2912 15.2491C49.1512 15.0622 48.9769 14.904 48.7779 14.7832C48.5953 14.6737 48.4007 14.5861 48.1979 14.5221C48.0168 14.4647 47.8303 14.4261 47.6415 14.407C47.462 14.3916 47.3062 14.3832 47.1741 14.3832C46.9875 14.3813 46.8012 14.3973 46.6177 14.4309C46.4654 14.4594 46.3248 14.5321 46.2129 14.64C46.0902 14.771 46.0026 14.9314 45.9583 15.106C45.8907 15.3731 45.8602 15.6485 45.8679 15.9242V19.9183C46.0195 19.938 46.1725 19.9534 46.3297 19.9661C46.4869 19.9787 46.6497 19.9857 46.8138 19.9857Z" fill="#3EAE2B"/>
<path d="M55.1718 13.0921L60.8683 13.0722C61.6572 13.0642 62.4439 13.1542 63.2105 13.3401C63.8698 13.5012 64.5039 13.7516 65.0953 14.0844C65.6278 14.3866 66.1125 14.766 66.5339 15.2103C67.3218 16.0386 67.8767 17.0607 68.1421 18.1727C68.271 18.7052 68.3366 19.2511 68.3377 19.799C68.336 20.3433 68.2751 20.8857 68.1559 21.4167C68.0337 21.9725 67.843 22.511 67.5882 23.0198C67.325 23.5476 66.993 24.0383 66.6011 24.4791C66.184 24.9476 65.6981 25.3499 65.1599 25.6721C64.5571 26.0307 63.9066 26.3022 63.2278 26.4784C62.4254 26.6847 61.5994 26.7841 60.771 26.7739H55.1718V25.4861C55.3688 25.4753 55.565 25.4529 55.7593 25.4189C55.9225 25.3926 56.0747 25.3199 56.1978 25.2095C56.332 25.0721 56.4262 24.9005 56.47 24.7134C56.5423 24.4102 56.5745 24.0989 56.5656 23.7874V16.2974C56.5656 16.1199 56.5656 15.9442 56.5699 15.7728C56.5742 15.6014 56.5776 15.4377 56.5845 15.2809C56.5914 15.1241 56.5983 14.9846 56.6078 14.8571C56.6173 14.7296 56.6285 14.6245 56.6414 14.5418L55.1718 14.5995V13.0921ZM60.8304 14.3799C60.6181 14.3721 60.4055 14.3848 60.1956 14.4178C60.0273 14.4433 59.8709 14.52 59.7476 14.6374C59.6148 14.779 59.5223 14.9536 59.4797 15.1431C59.4118 15.437 59.3814 15.7383 59.3893 16.0398V23.5686C59.3893 23.7469 59.3893 23.9209 59.3893 24.0932C59.3893 24.2654 59.3807 24.4282 59.3747 24.5842C59.3686 24.7401 59.36 24.8822 59.3505 25.0088C59.3411 25.1355 59.3299 25.2414 59.3178 25.3241C59.4125 25.3172 59.5418 25.3146 59.7037 25.3146C59.8657 25.3146 60.0379 25.3146 60.2206 25.3241C60.4032 25.3336 60.5798 25.3353 60.7555 25.3379C60.9312 25.3405 61.0751 25.3431 61.1862 25.3431C61.8977 25.3431 62.5099 25.1995 63.0227 24.9124C63.5272 24.6296 63.9596 24.2343 64.2864 23.7572C64.6268 23.2566 64.8756 22.6995 65.0212 22.1119C65.1806 21.4928 65.2607 20.856 65.2598 20.2168C65.2598 19.2176 65.1565 18.3561 64.9497 17.6326C64.743 16.909 64.4472 16.3094 64.0625 15.8339C63.6909 15.3669 63.2098 14.9988 62.6618 14.7623C62.0812 14.5196 61.4597 14.3898 60.8304 14.3799Z" fill="#3EAE2B"/>
<path d="M80.221 17.4459L77.7471 26.7408H74.7929L71.2143 14.9481C71.1342 14.7079 70.9901 14.5638 70.782 14.5157L69.6291 14.2515V12.9306H76.0178V14.2515L74.5047 14.5638L77.1227 24.6993H76.7384L79.2362 15.5485L80.221 17.4459ZM78.7078 14.9481C78.6438 14.7239 78.4997 14.5798 78.2755 14.5157L77.4829 14.2515V12.9306H83.7035V14.2515L81.9742 14.5638L84.5682 24.6993H84.0878L86.7057 14.5638L85.1926 14.2515V12.9306H90.0682V14.2515L88.8433 14.5157C88.7312 14.5318 88.6352 14.5798 88.5551 14.6598C88.4751 14.7239 88.419 14.82 88.387 14.9481L85.1206 26.7408H82.1664L79.5244 17.3739L78.7078 14.9481Z" fill="#0068C7"/>
<path d="M92.6781 21.2167H98.1541L98.6585 22.7058H92.2698L92.6781 21.2167ZM101.637 24.7233C101.701 24.9314 101.861 25.0755 102.117 25.1556L103.198 25.4438V26.6927H96.641V25.4438L98.3223 25.1556L94.9358 14.1555H95.6803L92.3659 25.1556L94.0231 25.4438V26.6927H88.9313V25.4438L90.1082 25.1556C90.3484 25.0916 90.5005 24.9474 90.5645 24.7233L94.5515 12.8825H97.6498L101.637 24.7233Z" fill="#0068C7"/>
<path d="M104.929 26.6927V25.4438L106.994 25.1076C107.266 25.0595 107.402 24.9074 107.402 24.6512V14.2756H106.658C106.434 14.2756 106.21 14.2916 105.985 14.3236C105.777 14.3396 105.601 14.3796 105.457 14.4437C105.233 14.5398 105.097 14.6999 105.049 14.924L104.304 17.9263H102.695C102.599 17.0296 102.535 16.197 102.503 15.4284C102.487 14.6598 102.527 13.8272 102.623 12.9306H115.472C115.569 13.8272 115.601 14.6679 115.569 15.4524C115.552 16.221 115.504 17.0456 115.424 17.9263H113.815L113.023 14.9C113.007 14.7879 112.967 14.6999 112.903 14.6358C112.838 14.5558 112.742 14.4917 112.614 14.4437C112.31 14.3316 111.91 14.2756 111.413 14.2756H110.717V24.6512C110.717 24.9074 110.853 25.0595 111.125 25.1076L113.167 25.4438V26.6927H104.929Z" fill="#0068C7"/>
<path d="M122.969 26.9329C120.871 26.9329 119.302 26.3485 118.261 25.1796C117.237 23.9947 116.724 22.3055 116.724 20.1119C116.724 18.4146 117.005 17.0216 117.565 15.9328C118.125 14.828 118.91 14.0114 119.919 13.483C120.943 12.9546 122.136 12.6904 123.497 12.6904C124.202 12.6904 124.922 12.7544 125.659 12.8825C126.412 13.0106 127.108 13.1948 127.749 13.4349C127.797 14.0114 127.805 14.6278 127.773 15.2843C127.757 15.9408 127.684 16.6373 127.556 17.3739H125.611L125.107 15.0922C125.075 14.9801 125.027 14.86 124.962 14.7319C124.898 14.6038 124.786 14.4917 124.626 14.3957C124.466 14.2836 124.258 14.1955 124.002 14.1315C123.762 14.0514 123.505 14.0114 123.233 14.0114C122.353 14.0114 121.664 14.4517 121.168 15.3323C120.687 16.213 120.447 17.6941 120.447 19.7756C120.447 21.0406 120.543 22.1053 120.735 22.97C120.943 23.8346 121.256 24.4911 121.672 24.9394C122.104 25.3718 122.649 25.5879 123.305 25.5879C123.593 25.5879 123.874 25.5479 124.146 25.4678C124.418 25.3718 124.65 25.2357 124.842 25.0595C124.922 24.9795 124.986 24.8914 125.035 24.7953C125.099 24.6993 125.163 24.5632 125.227 24.387L125.827 22.3695L127.749 22.5136C127.781 23.0581 127.789 23.6425 127.773 24.2669C127.757 24.8754 127.7 25.5079 127.604 26.1643C126.98 26.3725 126.243 26.5486 125.395 26.6927C124.562 26.8529 123.754 26.9329 122.969 26.9329Z" fill="#0068C7"/>
<path d="M144.399 14.2515L143.006 14.5157C142.75 14.5638 142.621 14.7319 142.621 15.0201V24.6993C142.621 24.9715 142.758 25.1316 143.03 25.1796L144.399 25.4438V26.6927H137.938V25.4438L138.899 25.1796C139.171 25.0996 139.307 24.9394 139.307 24.6993V20.5202H134.528V24.6993C134.528 24.9715 134.656 25.1316 134.912 25.1796L136.017 25.4438V26.6927H129.436V25.4438L130.805 25.1796C131.077 25.1316 131.213 24.9715 131.213 24.6993V15.0201C131.213 14.7319 131.077 14.5638 130.805 14.5157L129.436 14.2515V12.9306H136.017V14.2515L134.912 14.5157C134.656 14.5798 134.528 14.7479 134.528 15.0201V18.911H139.307V15.0201C139.307 14.7639 139.179 14.5958 138.923 14.5157L137.914 14.2515V12.9306H144.399V14.2515Z" fill="#0068C7"/>
</svg>
